<mxfile host="app.diagrams.net" modified="2022-07-30T10:48:24.556Z" agent="5.0 (X11)" etag="y0Nqwm-470KMsh4_aORp" version="20.2.2" type="github">
  <diagram id="2dL3of6dWHD_wACcAEE4" name="Page-1">
    <mxGraphModel dx="1243" dy="701" grid="0" gridSize="10" guides="1" tooltips="1" connect="1" arrows="1" fold="1" page="1" pageScale="1" pageWidth="827" pageHeight="1169" math="0" shadow="0">
      <root>
        <mxCell id="0" />
        <mxCell id="1" parent="0" />
        <mxCell id="Orm7u1N182ISBqQRKi2e-1" value="&lt;font face=&quot;Arial&quot;&gt;Read and visualize input data&lt;/font&gt;" style="rounded=1;whiteSpace=wrap;html=1;" parent="1" vertex="1">
          <mxGeometry x="360" y="366.5" width="115" height="40" as="geometry" />
        </mxCell>
        <mxCell id="Orm7u1N182ISBqQRKi2e-2" value="&lt;font face=&quot;Arial&quot;&gt;Setup Colab environment&lt;/font&gt;" style="rounded=1;whiteSpace=wrap;html=1;" parent="1" vertex="1">
          <mxGeometry x="372" y="304" width="90" height="34" as="geometry" />
        </mxCell>
        <mxCell id="Orm7u1N182ISBqQRKi2e-3" value="&lt;font face=&quot;Verdana&quot;&gt;Optical flow&lt;/font&gt;" style="rounded=1;whiteSpace=wrap;html=1;" parent="1" vertex="1">
          <mxGeometry x="373" y="496" width="89" height="27" as="geometry" />
        </mxCell>
        <mxCell id="Orm7u1N182ISBqQRKi2e-4" value="&lt;font face=&quot;Arial&quot;&gt;Extrapolation&lt;/font&gt;" style="rounded=1;whiteSpace=wrap;html=1;" parent="1" vertex="1">
          <mxGeometry x="368" y="549" width="99" height="31" as="geometry" />
        </mxCell>
        <mxCell id="Orm7u1N182ISBqQRKi2e-5" value="&lt;font face=&quot;Arial&quot;&gt;Compute and visualize deterministic nowcasts&lt;/font&gt;" style="rounded=1;whiteSpace=wrap;html=1;" parent="1" vertex="1">
          <mxGeometry x="260" y="645" width="131.5" height="40" as="geometry" />
        </mxCell>
        <mxCell id="Orm7u1N182ISBqQRKi2e-6" value="&lt;font face=&quot;Arial&quot;&gt;Compute and visualize ensemble nowcasts&lt;/font&gt;" style="rounded=1;whiteSpace=wrap;html=1;" parent="1" vertex="1">
          <mxGeometry x="444.25" y="645" width="134.5" height="39" as="geometry" />
        </mxCell>
        <mxCell id="Orm7u1N182ISBqQRKi2e-7" value="&lt;font face=&quot;Arial&quot;&gt;Blending with NWP&lt;/font&gt;" style="rounded=1;whiteSpace=wrap;html=1;" parent="1" vertex="1">
          <mxGeometry x="300.75" y="856.5" width="83" height="39" as="geometry" />
        </mxCell>
        <mxCell id="Orm7u1N182ISBqQRKi2e-11" value="&lt;b&gt;&lt;font style=&quot;font-size: 24px;&quot; face=&quot;Arial&quot;&gt;Organization of the users hands-on session&lt;/font&gt;&lt;/b&gt;" style="text;html=1;strokeColor=none;fillColor=none;align=center;verticalAlign=middle;whiteSpace=wrap;rounded=0;fontFamily=Times New Roman;" parent="1" vertex="1">
          <mxGeometry width="520" height="41" as="geometry" />
        </mxCell>
        <mxCell id="Orm7u1N182ISBqQRKi2e-17" value="" style="endArrow=none;html=1;rounded=0;fontFamily=Times New Roman;fontSize=18;dashed=1;" parent="1" edge="1">
          <mxGeometry width="50" height="50" relative="1" as="geometry">
            <mxPoint x="28" y="474" as="sourcePoint" />
            <mxPoint x="801" y="474" as="targetPoint" />
          </mxGeometry>
        </mxCell>
        <mxCell id="Orm7u1N182ISBqQRKi2e-18" value="" style="endArrow=none;html=1;rounded=0;fontFamily=Times New Roman;fontSize=18;dashed=1;" parent="1" edge="1">
          <mxGeometry width="50" height="50" relative="1" as="geometry">
            <mxPoint x="22.5" y="592" as="sourcePoint" />
            <mxPoint x="797.5" y="592" as="targetPoint" />
          </mxGeometry>
        </mxCell>
        <mxCell id="Orm7u1N182ISBqQRKi2e-19" value="&lt;font face=&quot;Arial&quot;&gt;Calculate and plot verification metrics&lt;br&gt;&lt;/font&gt;" style="rounded=1;whiteSpace=wrap;html=1;" parent="1" vertex="1">
          <mxGeometry x="270.25" y="707" width="111" height="46" as="geometry" />
        </mxCell>
        <mxCell id="Orm7u1N182ISBqQRKi2e-20" value="" style="endArrow=none;html=1;rounded=0;fontFamily=Times New Roman;fontSize=18;" parent="1" edge="1">
          <mxGeometry width="50" height="50" relative="1" as="geometry">
            <mxPoint x="417.15999999999997" y="806" as="sourcePoint" />
            <mxPoint x="417.15999999999997" y="631" as="targetPoint" />
          </mxGeometry>
        </mxCell>
        <mxCell id="Orm7u1N182ISBqQRKi2e-21" value="&lt;font face=&quot;Arial&quot;&gt;Calculate and plot verification metrics&lt;br&gt;&lt;/font&gt;" style="rounded=1;whiteSpace=wrap;html=1;" parent="1" vertex="1">
          <mxGeometry x="456" y="706" width="111" height="46" as="geometry" />
        </mxCell>
        <mxCell id="Orm7u1N182ISBqQRKi2e-22" value="" style="shape=flexArrow;endArrow=classic;html=1;rounded=0;fontFamily=Times New Roman;fontSize=18;fillColor=#000000;strokeColor=none;width=8;endSize=3.8114285714285714;endWidth=12.571428571428571;entryX=0.5;entryY=0;entryDx=0;entryDy=0;exitX=0.5;exitY=1;exitDx=0;exitDy=0;" parent="1" source="Orm7u1N182ISBqQRKi2e-2" target="Orm7u1N182ISBqQRKi2e-1" edge="1">
          <mxGeometry width="50" height="50" relative="1" as="geometry">
            <mxPoint x="419.71" y="337" as="sourcePoint" />
            <mxPoint x="419.71" y="366.5" as="targetPoint" />
          </mxGeometry>
        </mxCell>
        <mxCell id="Orm7u1N182ISBqQRKi2e-23" value="" style="shape=flexArrow;endArrow=classic;html=1;rounded=0;fontFamily=Times New Roman;fontSize=18;fillColor=#000000;strokeColor=none;width=8;endSize=3.8114285714285714;endWidth=12.571428571428571;entryX=0.5;entryY=0;entryDx=0;entryDy=0;exitX=0.5;exitY=1;exitDx=0;exitDy=0;" parent="1" source="Orm7u1N182ISBqQRKi2e-66" target="Orm7u1N182ISBqQRKi2e-3" edge="1">
          <mxGeometry width="50" height="50" relative="1" as="geometry">
            <mxPoint x="417.21000000000026" y="462" as="sourcePoint" />
            <mxPoint x="417.21000000000026" y="491.5" as="targetPoint" />
          </mxGeometry>
        </mxCell>
        <mxCell id="Orm7u1N182ISBqQRKi2e-25" value="" style="shape=flexArrow;endArrow=classic;html=1;rounded=0;fontFamily=Times New Roman;fontSize=18;fillColor=#000000;strokeColor=none;width=8;endSize=3.8114285714285714;endWidth=12.571428571428571;entryX=0.5;entryY=0;entryDx=0;entryDy=0;" parent="1" target="Orm7u1N182ISBqQRKi2e-4" edge="1">
          <mxGeometry width="50" height="50" relative="1" as="geometry">
            <mxPoint x="417.21000000000026" y="523" as="sourcePoint" />
            <mxPoint x="418" y="548" as="targetPoint" />
          </mxGeometry>
        </mxCell>
        <mxCell id="Orm7u1N182ISBqQRKi2e-26" value="" style="shape=flexArrow;endArrow=classic;html=1;rounded=0;fontFamily=Times New Roman;fontSize=18;fillColor=#000000;strokeColor=none;width=7.777777777777778;endSize=4.175;endWidth=12.571428571428571;entryX=0.5;entryY=0;entryDx=0;entryDy=0;" parent="1" target="Orm7u1N182ISBqQRKi2e-91" edge="1">
          <mxGeometry width="50" height="50" relative="1" as="geometry">
            <mxPoint x="417.21" y="580" as="sourcePoint" />
            <mxPoint x="417" y="616" as="targetPoint" />
          </mxGeometry>
        </mxCell>
        <mxCell id="Orm7u1N182ISBqQRKi2e-27" value="" style="endArrow=none;html=1;rounded=0;fontFamily=Times New Roman;fontSize=18;dashed=1;" parent="1" edge="1">
          <mxGeometry width="50" height="50" relative="1" as="geometry">
            <mxPoint x="24.5" y="819" as="sourcePoint" />
            <mxPoint x="799.5" y="819" as="targetPoint" />
          </mxGeometry>
        </mxCell>
        <mxCell id="Orm7u1N182ISBqQRKi2e-28" value="" style="shape=flexArrow;endArrow=classic;html=1;rounded=0;fontFamily=Times New Roman;fontSize=18;fillColor=#000000;strokeColor=none;width=8;endSize=3.8114285714285714;endWidth=12.571428571428571;exitX=0.5;exitY=1;exitDx=0;exitDy=0;entryX=0.5;entryY=0;entryDx=0;entryDy=0;" parent="1" source="Orm7u1N182ISBqQRKi2e-6" target="Orm7u1N182ISBqQRKi2e-21" edge="1">
          <mxGeometry width="50" height="50" relative="1" as="geometry">
            <mxPoint x="544" y="692" as="sourcePoint" />
            <mxPoint x="550" y="703" as="targetPoint" />
          </mxGeometry>
        </mxCell>
        <mxCell id="Orm7u1N182ISBqQRKi2e-29" value="" style="shape=flexArrow;endArrow=classic;html=1;rounded=0;fontFamily=Times New Roman;fontSize=18;fillColor=#000000;strokeColor=none;width=8;endSize=3.8114285714285714;endWidth=12.571428571428571;entryX=0.5;entryY=0;entryDx=0;entryDy=0;exitX=0.5;exitY=1;exitDx=0;exitDy=0;" parent="1" source="Orm7u1N182ISBqQRKi2e-5" target="Orm7u1N182ISBqQRKi2e-19" edge="1">
          <mxGeometry width="50" height="50" relative="1" as="geometry">
            <mxPoint x="355" y="693" as="sourcePoint" />
            <mxPoint x="356" y="707" as="targetPoint" />
          </mxGeometry>
        </mxCell>
        <mxCell id="Orm7u1N182ISBqQRKi2e-30" value="&lt;font style=&quot;font-size: 18px;&quot; face=&quot;Arial&quot;&gt;Exercises (assignments in GitHub + notebooks in Google Colab)&lt;br&gt;&lt;/font&gt;" style="text;html=1;strokeColor=none;fillColor=none;align=center;verticalAlign=middle;whiteSpace=wrap;rounded=0;fontFamily=Times New Roman;" parent="1" vertex="1">
          <mxGeometry x="134" y="267" width="539.75" height="31.25" as="geometry" />
        </mxCell>
        <mxCell id="Orm7u1N182ISBqQRKi2e-31" value="&lt;div&gt;&lt;font style=&quot;font-size: 18px;&quot; face=&quot;Arial&quot;&gt;Introduction slides (in Google Drive)&lt;/font&gt;&lt;/div&gt;&lt;div&gt;&lt;font style=&quot;font-size: 14px;&quot; face=&quot;Arial&quot;&gt;20-25 minutes, 3-4 minutes for each slide&lt;/font&gt;&lt;/div&gt;" style="text;html=1;strokeColor=none;fillColor=none;align=center;verticalAlign=middle;whiteSpace=wrap;rounded=0;fontFamily=Times New Roman;" parent="1" vertex="1">
          <mxGeometry x="241" y="51" width="346" height="40" as="geometry" />
        </mxCell>
        <mxCell id="Orm7u1N182ISBqQRKi2e-32" value="&lt;font face=&quot;Arial&quot;&gt;Overview of pysteps modules&lt;/font&gt;" style="rounded=1;whiteSpace=wrap;html=1;" parent="1" vertex="1">
          <mxGeometry x="4" y="101" width="100" height="31" as="geometry" />
        </mxCell>
        <mxCell id="Orm7u1N182ISBqQRKi2e-33" value="" style="shape=flexArrow;endArrow=classic;html=1;rounded=0;fontFamily=Times New Roman;fontSize=18;fillColor=#000000;strokeColor=none;width=6.666666666666666;endSize=3.2857142857142856;endWidth=7.2;exitX=1;exitY=0.5;exitDx=0;exitDy=0;entryX=0;entryY=0.5;entryDx=0;entryDy=0;startSize=3.2857142857142856;" parent="1" source="Orm7u1N182ISBqQRKi2e-32" target="Orm7u1N182ISBqQRKi2e-34" edge="1">
          <mxGeometry width="50" height="50" relative="1" as="geometry">
            <mxPoint x="167.25" y="100" as="sourcePoint" />
            <mxPoint x="129" y="117" as="targetPoint" />
          </mxGeometry>
        </mxCell>
        <mxCell id="Orm7u1N182ISBqQRKi2e-34" value="&lt;font face=&quot;Arial&quot;&gt;The workflow for generating a nowcast&lt;/font&gt;" style="rounded=1;whiteSpace=wrap;html=1;" parent="1" vertex="1">
          <mxGeometry x="123" y="91" width="98" height="50" as="geometry" />
        </mxCell>
        <mxCell id="Orm7u1N182ISBqQRKi2e-35" value="&lt;font face=&quot;Arial&quot;&gt;Deterministic nowcasts&lt;/font&gt;" style="rounded=1;whiteSpace=wrap;html=1;" parent="1" vertex="1">
          <mxGeometry x="238" y="101" width="103" height="31" as="geometry" />
        </mxCell>
        <mxCell id="Orm7u1N182ISBqQRKi2e-38" value="&lt;font face=&quot;Arial&quot;&gt;Ensemble nowcasts&lt;br&gt;&lt;/font&gt;" style="rounded=1;whiteSpace=wrap;html=1;" parent="1" vertex="1">
          <mxGeometry x="358.5" y="101" width="103" height="31" as="geometry" />
        </mxCell>
        <mxCell id="Orm7u1N182ISBqQRKi2e-40" value="&lt;font face=&quot;Arial&quot;&gt;Visualization tools&lt;/font&gt;" style="rounded=1;whiteSpace=wrap;html=1;" parent="1" vertex="1">
          <mxGeometry x="481" y="101" width="103" height="31" as="geometry" />
        </mxCell>
        <mxCell id="Orm7u1N182ISBqQRKi2e-43" value="&lt;font face=&quot;Arial&quot;&gt;Verification tools&lt;/font&gt;" style="rounded=1;whiteSpace=wrap;html=1;" parent="1" vertex="1">
          <mxGeometry x="600" y="101" width="103" height="31" as="geometry" />
        </mxCell>
        <mxCell id="Orm7u1N182ISBqQRKi2e-46" value="&lt;ul&gt;&lt;li&gt;&lt;font style=&quot;font-size: 10px;&quot; face=&quot;Arial&quot;&gt;read the input time series&lt;br&gt;&lt;/font&gt;&lt;/li&gt;&lt;li&gt;&lt;font style=&quot;font-size: 10px;&quot; size=&quot;3&quot; face=&quot;Arial&quot;&gt;use optical flow to estimate the advection field&lt;/font&gt;&lt;/li&gt;&lt;li&gt;&lt;font style=&quot;font-size: 10px;&quot; size=&quot;3&quot; face=&quot;Arial&quot;&gt;apply data transformations&lt;br&gt;&lt;/font&gt;&lt;/li&gt;&lt;li&gt;&lt;font style=&quot;font-size: 10px;&quot; size=&quot;3&quot; face=&quot;Arial&quot;&gt;call the nowcast function&lt;br&gt;&lt;/font&gt;&lt;/li&gt;&lt;li&gt;&lt;font style=&quot;font-size: 10px;&quot; size=&quot;3&quot; face=&quot;Arial&quot;&gt;write the output&lt;br&gt;&lt;/font&gt;&lt;/li&gt;&lt;/ul&gt;" style="text;strokeColor=none;fillColor=none;html=1;whiteSpace=wrap;verticalAlign=middle;overflow=hidden;fontFamily=Times New Roman;fontSize=12;" parent="1" vertex="1">
          <mxGeometry x="77" y="132" width="164" height="106" as="geometry" />
        </mxCell>
        <mxCell id="Orm7u1N182ISBqQRKi2e-49" value="" style="shape=flexArrow;endArrow=classic;html=1;rounded=0;fontFamily=Times New Roman;fontSize=18;fillColor=#000000;strokeColor=none;width=8;endSize=3.8114285714285714;endWidth=12.571428571428571;" parent="1" edge="1">
          <mxGeometry width="50" height="50" relative="1" as="geometry">
            <mxPoint x="417.1" y="824" as="sourcePoint" />
            <mxPoint x="416.8" y="846" as="targetPoint" />
          </mxGeometry>
        </mxCell>
        <mxCell id="Orm7u1N182ISBqQRKi2e-50" value="&lt;font face=&quot;Arial&quot;&gt;More advanced functionality&lt;/font&gt;" style="rounded=1;whiteSpace=wrap;html=1;" parent="1" vertex="1">
          <mxGeometry x="721" y="101" width="94" height="31" as="geometry" />
        </mxCell>
        <mxCell id="Orm7u1N182ISBqQRKi2e-57" value="" style="shape=flexArrow;endArrow=classic;html=1;rounded=0;fontFamily=Times New Roman;fontSize=18;fillColor=#000000;strokeColor=none;width=6.666666666666666;endSize=3.2857142857142856;endWidth=7.2;entryX=0;entryY=0.5;entryDx=0;entryDy=0;startSize=3.2857142857142856;exitX=1;exitY=0.5;exitDx=0;exitDy=0;" parent="1" source="Orm7u1N182ISBqQRKi2e-34" target="Orm7u1N182ISBqQRKi2e-35" edge="1">
          <mxGeometry width="50" height="50" relative="1" as="geometry">
            <mxPoint x="232" y="80" as="sourcePoint" />
            <mxPoint x="129" y="126.5" as="targetPoint" />
          </mxGeometry>
        </mxCell>
        <mxCell id="Orm7u1N182ISBqQRKi2e-58" value="" style="shape=flexArrow;endArrow=classic;html=1;rounded=0;fontFamily=Times New Roman;fontSize=18;fillColor=#000000;strokeColor=none;width=6.666666666666666;endSize=3.2857142857142856;endWidth=7.2;startSize=3.2857142857142856;entryX=0;entryY=0.5;entryDx=0;entryDy=0;" parent="1" source="Orm7u1N182ISBqQRKi2e-35" target="Orm7u1N182ISBqQRKi2e-38" edge="1">
          <mxGeometry width="50" height="50" relative="1" as="geometry">
            <mxPoint x="360" y="154" as="sourcePoint" />
            <mxPoint x="352" y="173" as="targetPoint" />
          </mxGeometry>
        </mxCell>
        <mxCell id="Orm7u1N182ISBqQRKi2e-61" value="" style="shape=flexArrow;endArrow=classic;html=1;rounded=0;fontFamily=Times New Roman;fontSize=18;fillColor=#000000;strokeColor=none;width=6.666666666666666;endSize=3.2857142857142856;endWidth=7.2;startSize=3.2857142857142856;entryX=0;entryY=0.5;entryDx=0;entryDy=0;exitX=1;exitY=0.5;exitDx=0;exitDy=0;" parent="1" source="Orm7u1N182ISBqQRKi2e-38" target="Orm7u1N182ISBqQRKi2e-40" edge="1">
          <mxGeometry width="50" height="50" relative="1" as="geometry">
            <mxPoint x="469" y="160" as="sourcePoint" />
            <mxPoint x="365.75" y="126.5" as="targetPoint" />
          </mxGeometry>
        </mxCell>
        <mxCell id="Orm7u1N182ISBqQRKi2e-62" value="" style="shape=flexArrow;endArrow=classic;html=1;rounded=0;fontFamily=Times New Roman;fontSize=18;fillColor=#000000;strokeColor=none;width=6.666666666666666;endSize=3.2857142857142856;endWidth=7.2;startSize=3.2857142857142856;entryX=0;entryY=0.5;entryDx=0;entryDy=0;exitX=1;exitY=0.5;exitDx=0;exitDy=0;" parent="1" source="Orm7u1N182ISBqQRKi2e-40" target="Orm7u1N182ISBqQRKi2e-43" edge="1">
          <mxGeometry width="50" height="50" relative="1" as="geometry">
            <mxPoint x="593" y="185" as="sourcePoint" />
            <mxPoint x="486.75" y="126.5" as="targetPoint" />
          </mxGeometry>
        </mxCell>
        <mxCell id="Orm7u1N182ISBqQRKi2e-63" value="" style="shape=flexArrow;endArrow=classic;html=1;rounded=0;fontFamily=Times New Roman;fontSize=18;fillColor=#000000;strokeColor=none;width=6.666666666666666;endSize=3.2857142857142856;endWidth=7.2;startSize=3.2857142857142856;entryX=0;entryY=0.5;entryDx=0;entryDy=0;exitX=1;exitY=0.5;exitDx=0;exitDy=0;" parent="1" source="Orm7u1N182ISBqQRKi2e-43" target="Orm7u1N182ISBqQRKi2e-50" edge="1">
          <mxGeometry width="50" height="50" relative="1" as="geometry">
            <mxPoint x="758" y="199" as="sourcePoint" />
            <mxPoint x="610" y="126.5" as="targetPoint" />
          </mxGeometry>
        </mxCell>
        <mxCell id="Orm7u1N182ISBqQRKi2e-64" value="&lt;ul&gt;&lt;li&gt;&lt;font style=&quot;font-size: 10px;&quot; face=&quot;Arial&quot;&gt;what method to use for what purpose?&lt;/font&gt;&lt;/li&gt;&lt;li&gt;&lt;font style=&quot;font-size: 10px;&quot; size=&quot;3&quot; face=&quot;Arial&quot;&gt;brief introduction to the differences of the methods with illustrations&lt;br&gt;&lt;/font&gt;&lt;/li&gt;&lt;/ul&gt;" style="text;strokeColor=none;fillColor=none;html=1;whiteSpace=wrap;verticalAlign=middle;overflow=hidden;fontFamily=Times New Roman;fontSize=12;" parent="1" vertex="1">
          <mxGeometry x="233" y="128" width="213" height="98" as="geometry" />
        </mxCell>
        <mxCell id="Orm7u1N182ISBqQRKi2e-66" value="&lt;font face=&quot;Arial&quot;&gt;Data transformations&lt;/font&gt;" style="rounded=1;whiteSpace=wrap;html=1;" parent="1" vertex="1">
          <mxGeometry x="356" y="433" width="123" height="24.5" as="geometry" />
        </mxCell>
        <mxCell id="Orm7u1N182ISBqQRKi2e-68" value="" style="shape=flexArrow;endArrow=classic;html=1;rounded=0;fontFamily=Times New Roman;fontSize=18;fillColor=#000000;strokeColor=none;width=8;endSize=3.8114285714285714;endWidth=12.571428571428571;entryX=0.5;entryY=0;entryDx=0;entryDy=0;exitX=0.5;exitY=1;exitDx=0;exitDy=0;" parent="1" source="Orm7u1N182ISBqQRKi2e-1" target="Orm7u1N182ISBqQRKi2e-66" edge="1">
          <mxGeometry width="50" height="50" relative="1" as="geometry">
            <mxPoint x="427.5" y="346" as="sourcePoint" />
            <mxPoint x="427.5" y="376.5" as="targetPoint" />
          </mxGeometry>
        </mxCell>
        <mxCell id="Orm7u1N182ISBqQRKi2e-69" value="&lt;font style=&quot;font-size: 12px;&quot; face=&quot;Arial&quot;&gt;15 minutes&lt;/font&gt;" style="text;html=1;strokeColor=none;fillColor=none;align=center;verticalAlign=middle;whiteSpace=wrap;rounded=0;fontFamily=Times New Roman;fontSize=10;" parent="1" vertex="1">
          <mxGeometry x="711" y="313.5" width="82" height="27" as="geometry" />
        </mxCell>
        <mxCell id="Orm7u1N182ISBqQRKi2e-70" value="&lt;font style=&quot;font-size: 12px;&quot; face=&quot;Arial&quot;&gt;10 minutes&lt;/font&gt;" style="text;html=1;strokeColor=none;fillColor=none;align=center;verticalAlign=middle;whiteSpace=wrap;rounded=0;fontFamily=Times New Roman;fontSize=10;" parent="1" vertex="1">
          <mxGeometry x="711" y="370" width="82" height="27" as="geometry" />
        </mxCell>
        <mxCell id="Orm7u1N182ISBqQRKi2e-71" value="&lt;font style=&quot;font-size: 12px;&quot; face=&quot;Arial&quot;&gt;5 minutes&lt;/font&gt;" style="text;html=1;strokeColor=none;fillColor=none;align=center;verticalAlign=middle;whiteSpace=wrap;rounded=0;fontFamily=Times New Roman;fontSize=10;" parent="1" vertex="1">
          <mxGeometry x="713" y="430.5" width="82" height="27" as="geometry" />
        </mxCell>
        <mxCell id="Orm7u1N182ISBqQRKi2e-72" value="&lt;font style=&quot;font-size: 12px;&quot; face=&quot;Arial&quot;&gt;10 minutes&lt;/font&gt;" style="text;html=1;strokeColor=none;fillColor=none;align=center;verticalAlign=middle;whiteSpace=wrap;rounded=0;fontFamily=Times New Roman;fontSize=10;" parent="1" vertex="1">
          <mxGeometry x="717.5" y="497" width="82" height="27" as="geometry" />
        </mxCell>
        <mxCell id="Orm7u1N182ISBqQRKi2e-73" value="&lt;font style=&quot;font-size: 12px;&quot; face=&quot;Arial&quot;&gt;10 minutes&lt;/font&gt;" style="text;html=1;strokeColor=none;fillColor=none;align=center;verticalAlign=middle;whiteSpace=wrap;rounded=0;fontFamily=Times New Roman;fontSize=10;" parent="1" vertex="1">
          <mxGeometry x="717.5" y="551" width="82" height="27" as="geometry" />
        </mxCell>
        <mxCell id="Orm7u1N182ISBqQRKi2e-74" value="&lt;font style=&quot;font-size: 12px;&quot; face=&quot;Arial&quot;&gt;15 minutes&lt;/font&gt;" style="text;html=1;strokeColor=none;fillColor=none;align=center;verticalAlign=middle;whiteSpace=wrap;rounded=0;fontFamily=Times New Roman;fontSize=10;" parent="1" vertex="1">
          <mxGeometry x="717.19" y="651.5" width="82" height="27" as="geometry" />
        </mxCell>
        <mxCell id="Orm7u1N182ISBqQRKi2e-75" value="&lt;font style=&quot;font-size: 12px;&quot; face=&quot;Arial&quot;&gt;10 minutes&lt;/font&gt;" style="text;html=1;strokeColor=none;fillColor=none;align=center;verticalAlign=middle;whiteSpace=wrap;rounded=0;fontFamily=Times New Roman;fontSize=10;" parent="1" vertex="1">
          <mxGeometry x="717.5" y="716.5" width="82" height="27" as="geometry" />
        </mxCell>
        <mxCell id="Orm7u1N182ISBqQRKi2e-76" value="&lt;font style=&quot;font-size: 12px;&quot; face=&quot;Arial&quot;&gt;10 minutes&lt;/font&gt;" style="text;html=1;strokeColor=none;fillColor=none;align=center;verticalAlign=middle;whiteSpace=wrap;rounded=0;fontFamily=Times New Roman;fontSize=10;" parent="1" vertex="1">
          <mxGeometry x="717.19" y="775" width="82" height="27" as="geometry" />
        </mxCell>
        <mxCell id="Orm7u1N182ISBqQRKi2e-77" value="&lt;font style=&quot;font-size: 12px;&quot; face=&quot;Arial&quot;&gt;15 minutes&lt;/font&gt;" style="text;html=1;strokeColor=none;fillColor=none;align=center;verticalAlign=middle;whiteSpace=wrap;rounded=0;fontFamily=Times New Roman;fontSize=10;" parent="1" vertex="1">
          <mxGeometry x="713" y="867" width="82" height="27" as="geometry" />
        </mxCell>
        <mxCell id="Orm7u1N182ISBqQRKi2e-79" value="&lt;ul&gt;&lt;li&gt;&lt;font style=&quot;font-size: 10px;&quot; face=&quot;Arial&quot;&gt;what metric to use for what purpose?&lt;/font&gt;&lt;/li&gt;&lt;/ul&gt;" style="text;strokeColor=none;fillColor=none;html=1;whiteSpace=wrap;verticalAlign=middle;overflow=hidden;fontFamily=Times New Roman;fontSize=12;" parent="1" vertex="1">
          <mxGeometry x="576" y="119" width="135" height="62" as="geometry" />
        </mxCell>
        <mxCell id="Orm7u1N182ISBqQRKi2e-80" value="&lt;ul&gt;&lt;li&gt;&lt;font style=&quot;font-size: 10px;&quot; face=&quot;Arial&quot;&gt;introduction to different visualization methods&lt;br&gt;&lt;/font&gt;&lt;/li&gt;&lt;/ul&gt;" style="text;strokeColor=none;fillColor=none;html=1;whiteSpace=wrap;verticalAlign=middle;overflow=hidden;fontFamily=Times New Roman;fontSize=12;" parent="1" vertex="1">
          <mxGeometry x="452.25" y="121" width="143" height="62" as="geometry" />
        </mxCell>
        <mxCell id="Orm7u1N182ISBqQRKi2e-81" value="&lt;ul&gt;&lt;li&gt;&lt;font style=&quot;font-size: 10px;&quot; face=&quot;Arial&quot;&gt;cell tracking&lt;/font&gt;&lt;br&gt;&lt;/li&gt;&lt;li&gt;&lt;font style=&quot;font-size: 10px;&quot; face=&quot;Arial&quot;&gt;blending with NWP&lt;br&gt;&lt;/font&gt;&lt;/li&gt;&lt;/ul&gt;" style="text;strokeColor=none;fillColor=none;html=1;whiteSpace=wrap;verticalAlign=middle;overflow=hidden;fontFamily=Times New Roman;fontSize=12;" parent="1" vertex="1">
          <mxGeometry x="692.37" y="121" width="131.63" height="55" as="geometry" />
        </mxCell>
        <mxCell id="Orm7u1N182ISBqQRKi2e-82" value="" style="shape=curlyBracket;whiteSpace=wrap;html=1;rounded=1;flipH=1;fontFamily=Times New Roman;size=0.5;rotation=90;" parent="1" vertex="1">
          <mxGeometry x="342.13" y="33.87" width="18" height="222.38" as="geometry" />
        </mxCell>
        <mxCell id="Orm7u1N182ISBqQRKi2e-83" value="" style="rounded=0;whiteSpace=wrap;html=1;fontFamily=Arial;fontSize=10;strokeColor=none;fillColor=#FC0000;" parent="1" vertex="1">
          <mxGeometry x="751" y="7.570000000000002" width="15" height="15" as="geometry" />
        </mxCell>
        <mxCell id="Orm7u1N182ISBqQRKi2e-84" value="" style="rounded=0;whiteSpace=wrap;html=1;fontFamily=Arial;fontSize=10;strokeColor=none;fillColor=#0008FF;" parent="1" vertex="1">
          <mxGeometry x="751" y="60" width="15" height="15" as="geometry" />
        </mxCell>
        <mxCell id="Orm7u1N182ISBqQRKi2e-85" value="" style="rounded=0;whiteSpace=wrap;html=1;fontFamily=Arial;fontSize=10;strokeColor=none;fillColor=#00FF08;" parent="1" vertex="1">
          <mxGeometry x="751" y="33.87" width="15" height="15" as="geometry" />
        </mxCell>
        <mxCell id="Orm7u1N182ISBqQRKi2e-86" value="&lt;font style=&quot;font-size: 12px;&quot;&gt;Seppo&lt;/font&gt;" style="text;html=1;strokeColor=none;fillColor=none;align=center;verticalAlign=middle;whiteSpace=wrap;rounded=0;fontFamily=Arial;fontSize=10;" parent="1" vertex="1">
          <mxGeometry x="771" y="5" width="40" height="20.13" as="geometry" />
        </mxCell>
        <mxCell id="Orm7u1N182ISBqQRKi2e-87" value="&lt;font style=&quot;font-size: 12px;&quot;&gt;Ruben&lt;/font&gt;" style="text;html=1;strokeColor=none;fillColor=none;align=center;verticalAlign=middle;whiteSpace=wrap;rounded=0;fontFamily=Arial;fontSize=10;" parent="1" vertex="1">
          <mxGeometry x="771" y="31.300000000000004" width="40" height="20.13" as="geometry" />
        </mxCell>
        <mxCell id="Orm7u1N182ISBqQRKi2e-88" value="&lt;font style=&quot;font-size: 12px;&quot;&gt;Jenna&lt;/font&gt;" style="text;html=1;strokeColor=none;fillColor=none;align=center;verticalAlign=middle;whiteSpace=wrap;rounded=0;fontFamily=Arial;fontSize=10;" parent="1" vertex="1">
          <mxGeometry x="774" y="59.72" width="34" height="15.56" as="geometry" />
        </mxCell>
        <mxCell id="Orm7u1N182ISBqQRKi2e-89" value="" style="rounded=0;whiteSpace=wrap;html=1;fontFamily=Arial;fontSize=10;strokeColor=none;fillColor=#00FF08;" parent="1" vertex="1">
          <mxGeometry x="279" y="868.5" width="15" height="15" as="geometry" />
        </mxCell>
        <mxCell id="Orm7u1N182ISBqQRKi2e-90" value="" style="shape=flexArrow;endArrow=classic;html=1;rounded=0;fontFamily=Times New Roman;fontSize=18;fillColor=#000000;strokeColor=none;width=12.413793103448276;endSize=6.062068965517241;endWidth=19.310344827586206;exitX=0.5;exitY=1;exitDx=0;exitDy=0;" parent="1" edge="1">
          <mxGeometry width="50" height="50" relative="1" as="geometry">
            <mxPoint x="413" y="210.25" as="sourcePoint" />
            <mxPoint x="414" y="256.25" as="targetPoint" />
          </mxGeometry>
        </mxCell>
        <mxCell id="Orm7u1N182ISBqQRKi2e-91" value="&lt;font face=&quot;Arial&quot;&gt;Two parallel groups&lt;/font&gt;" style="text;html=1;strokeColor=none;fillColor=none;align=center;verticalAlign=middle;whiteSpace=wrap;rounded=0;fontFamily=Times New Roman;" parent="1" vertex="1">
          <mxGeometry x="364" y="613" width="107" height="16" as="geometry" />
        </mxCell>
        <mxCell id="Orm7u1N182ISBqQRKi2e-93" value="" style="endArrow=none;html=1;rounded=0;fontFamily=Times New Roman;fontSize=18;dashed=1;" parent="1" edge="1">
          <mxGeometry width="50" height="50" relative="1" as="geometry">
            <mxPoint x="27.5" y="346" as="sourcePoint" />
            <mxPoint x="800.5" y="346" as="targetPoint" />
          </mxGeometry>
        </mxCell>
        <mxCell id="Orm7u1N182ISBqQRKi2e-94" value="&lt;font face=&quot;Arial&quot;&gt;a)&lt;/font&gt;" style="text;html=1;strokeColor=none;fillColor=none;align=center;verticalAlign=middle;whiteSpace=wrap;rounded=0;fontFamily=Times New Roman;" parent="1" vertex="1">
          <mxGeometry x="310" y="624" width="26" height="16" as="geometry" />
        </mxCell>
        <mxCell id="Orm7u1N182ISBqQRKi2e-95" value="&lt;font face=&quot;Arial&quot;&gt;b)&lt;/font&gt;" style="text;html=1;strokeColor=none;fillColor=none;align=center;verticalAlign=middle;whiteSpace=wrap;rounded=0;fontFamily=Times New Roman;" parent="1" vertex="1">
          <mxGeometry x="498.5" y="624" width="26" height="16" as="geometry" />
        </mxCell>
        <mxCell id="ZOstuv5nGUSCnWHldueg-3" value="" style="rounded=0;whiteSpace=wrap;html=1;fontFamily=Arial;fontSize=10;strokeColor=none;fillColor=#0008FF;" parent="1" vertex="1">
          <mxGeometry x="245" y="722.5" width="15" height="15" as="geometry" />
        </mxCell>
        <mxCell id="ZOstuv5nGUSCnWHldueg-4" value="" style="rounded=0;whiteSpace=wrap;html=1;fontFamily=Arial;fontSize=10;strokeColor=none;fillColor=#0008FF;" parent="1" vertex="1">
          <mxGeometry x="238" y="657" width="15" height="15" as="geometry" />
        </mxCell>
        <mxCell id="ZOstuv5nGUSCnWHldueg-5" value="" style="rounded=0;whiteSpace=wrap;html=1;fontFamily=Arial;fontSize=10;strokeColor=none;fillColor=#00FF08;" parent="1" vertex="1">
          <mxGeometry x="587" y="655" width="15" height="15" as="geometry" />
        </mxCell>
        <mxCell id="ZOstuv5nGUSCnWHldueg-6" value="" style="rounded=0;whiteSpace=wrap;html=1;fontFamily=Arial;fontSize=10;strokeColor=none;fillColor=#00FF08;" parent="1" vertex="1">
          <mxGeometry x="576" y="722.5" width="15" height="15" as="geometry" />
        </mxCell>
        <mxCell id="ZOstuv5nGUSCnWHldueg-7" value="" style="rounded=0;whiteSpace=wrap;html=1;fontFamily=Arial;fontSize=10;strokeColor=none;fillColor=#FC0000;" parent="1" vertex="1">
          <mxGeometry x="471" y="502" width="15" height="15" as="geometry" />
        </mxCell>
        <mxCell id="ZOstuv5nGUSCnWHldueg-8" value="" style="rounded=0;whiteSpace=wrap;html=1;fontFamily=Arial;fontSize=10;strokeColor=none;fillColor=#FC0000;" parent="1" vertex="1">
          <mxGeometry x="475" y="559.25" width="15" height="15" as="geometry" />
        </mxCell>
        <mxCell id="ZOstuv5nGUSCnWHldueg-9" value="&lt;font face=&quot;Arial&quot;&gt;Export the output&lt;/font&gt;" style="rounded=1;whiteSpace=wrap;html=1;" parent="1" vertex="1">
          <mxGeometry x="476.5" y="772" width="70" height="39" as="geometry" />
        </mxCell>
        <mxCell id="ZOstuv5nGUSCnWHldueg-10" value="&lt;font face=&quot;Arial&quot;&gt;Export the output&lt;/font&gt;" style="rounded=1;whiteSpace=wrap;html=1;" parent="1" vertex="1">
          <mxGeometry x="290" y="772" width="70" height="39" as="geometry" />
        </mxCell>
        <mxCell id="cdKYpHv_BXalz-rKuTBW-1" value="" style="rounded=0;whiteSpace=wrap;html=1;fontFamily=Arial;fontSize=10;strokeColor=none;fillColor=#FC0000;" parent="1" vertex="1">
          <mxGeometry x="486" y="379" width="15" height="15" as="geometry" />
        </mxCell>
        <mxCell id="cdKYpHv_BXalz-rKuTBW-3" value="" style="rounded=0;whiteSpace=wrap;html=1;fontFamily=Arial;fontSize=10;strokeColor=none;fillColor=#0008FF;" parent="1" vertex="1">
          <mxGeometry x="266.25" y="784" width="15" height="15" as="geometry" />
        </mxCell>
        <mxCell id="cdKYpHv_BXalz-rKuTBW-4" value="" style="rounded=0;whiteSpace=wrap;html=1;fontFamily=Arial;fontSize=10;strokeColor=none;fillColor=#00FF08;" parent="1" vertex="1">
          <mxGeometry x="556" y="784" width="15" height="15" as="geometry" />
        </mxCell>
        <mxCell id="cdKYpHv_BXalz-rKuTBW-5" value="" style="shape=flexArrow;endArrow=classic;html=1;rounded=0;fontFamily=Times New Roman;fontSize=18;fillColor=#000000;strokeColor=none;width=8;endSize=3.8114285714285714;endWidth=12.571428571428571;exitX=0.5;exitY=1;exitDx=0;exitDy=0;entryX=0.5;entryY=0;entryDx=0;entryDy=0;" parent="1" source="Orm7u1N182ISBqQRKi2e-21" target="ZOstuv5nGUSCnWHldueg-9" edge="1">
          <mxGeometry width="50" height="50" relative="1" as="geometry">
            <mxPoint x="521.5" y="694" as="sourcePoint" />
            <mxPoint x="521.5" y="717" as="targetPoint" />
          </mxGeometry>
        </mxCell>
        <mxCell id="cdKYpHv_BXalz-rKuTBW-6" value="" style="shape=flexArrow;endArrow=classic;html=1;rounded=0;fontFamily=Times New Roman;fontSize=18;fillColor=#000000;strokeColor=none;width=8;endSize=3.8114285714285714;endWidth=12.571428571428571;exitX=0.5;exitY=1;exitDx=0;exitDy=0;entryX=0.5;entryY=0;entryDx=0;entryDy=0;" parent="1" source="Orm7u1N182ISBqQRKi2e-19" target="ZOstuv5nGUSCnWHldueg-10" edge="1">
          <mxGeometry width="50" height="50" relative="1" as="geometry">
            <mxPoint x="521.5" y="763" as="sourcePoint" />
            <mxPoint x="521.5" y="782" as="targetPoint" />
          </mxGeometry>
        </mxCell>
        <mxCell id="cdKYpHv_BXalz-rKuTBW-8" value="" style="rounded=0;whiteSpace=wrap;html=1;fontFamily=Arial;fontSize=10;strokeColor=none;fillColor=#FC0000;" parent="1" vertex="1">
          <mxGeometry x="471" y="313.5" width="15" height="15" as="geometry" />
        </mxCell>
        <mxCell id="cdKYpHv_BXalz-rKuTBW-9" value="" style="rounded=0;whiteSpace=wrap;html=1;fontFamily=Arial;fontSize=10;strokeColor=none;fillColor=#00FF08;" parent="1" vertex="1">
          <mxGeometry x="492" y="313.5" width="15" height="15" as="geometry" />
        </mxCell>
        <mxCell id="xCn_pxtUZpE1uZEFmkVX-1" value="&lt;font size=&quot;1&quot; face=&quot;Arial&quot;&gt;&lt;b style=&quot;font-size: 14px;&quot;&gt;Block 1: Setup&lt;/b&gt;&lt;/font&gt;" style="text;html=1;strokeColor=none;fillColor=none;align=center;verticalAlign=middle;whiteSpace=wrap;rounded=0;" vertex="1" parent="1">
          <mxGeometry x="24" y="310.5" width="110" height="24" as="geometry" />
        </mxCell>
        <mxCell id="xCn_pxtUZpE1uZEFmkVX-2" value="&lt;div align=&quot;left&quot;&gt;&lt;font size=&quot;1&quot; face=&quot;Arial&quot;&gt;&lt;b style=&quot;font-size: 14px;&quot;&gt;Block 2: Reading, transforming and visualizing input data&lt;/b&gt;&lt;/font&gt;&lt;br&gt;&lt;/div&gt;" style="text;html=1;strokeColor=none;fillColor=none;align=center;verticalAlign=middle;whiteSpace=wrap;rounded=0;" vertex="1" parent="1">
          <mxGeometry x="24" y="389.5" width="212" height="41" as="geometry" />
        </mxCell>
        <mxCell id="xCn_pxtUZpE1uZEFmkVX-3" value="&lt;font size=&quot;1&quot; face=&quot;Arial&quot;&gt;&lt;b style=&quot;font-size: 14px;&quot;&gt;Block 3: Nowcasting methods&lt;br&gt;&lt;/b&gt;&lt;/font&gt;" style="text;html=1;strokeColor=none;fillColor=none;align=center;verticalAlign=middle;whiteSpace=wrap;rounded=0;" vertex="1" parent="1">
          <mxGeometry x="19" y="690" width="209" height="21.5" as="geometry" />
        </mxCell>
        <mxCell id="xCn_pxtUZpE1uZEFmkVX-4" value="&lt;div align=&quot;left&quot;&gt;&lt;font size=&quot;1&quot; face=&quot;Arial&quot;&gt;&lt;b style=&quot;font-size: 14px;&quot;&gt;Block 4: Other pysteps functionality&lt;/b&gt;&lt;/font&gt;&lt;br&gt;&lt;/div&gt;" style="text;html=1;strokeColor=none;fillColor=none;align=left;verticalAlign=middle;whiteSpace=wrap;rounded=0;" vertex="1" parent="1">
          <mxGeometry x="19" y="859.5" width="253" height="30" as="geometry" />
        </mxCell>
        <mxCell id="xCn_pxtUZpE1uZEFmkVX-6" value="" style="endArrow=none;html=1;rounded=0;fontFamily=Times New Roman;fontSize=18;dashed=1;" edge="1" parent="1">
          <mxGeometry width="50" height="50" relative="1" as="geometry">
            <mxPoint x="24.189999999999998" y="931" as="sourcePoint" />
            <mxPoint x="799.19" y="931" as="targetPoint" />
          </mxGeometry>
        </mxCell>
        <mxCell id="xCn_pxtUZpE1uZEFmkVX-7" value="&lt;font face=&quot;Arial&quot;&gt;Cell tracking&lt;/font&gt;" style="rounded=1;whiteSpace=wrap;html=1;" vertex="1" parent="1">
          <mxGeometry x="446" y="862.5" width="89" height="27" as="geometry" />
        </mxCell>
        <mxCell id="xCn_pxtUZpE1uZEFmkVX-8" value="&lt;font face=&quot;Arial&quot;&gt;Advection-based interpolation&lt;/font&gt;" style="rounded=1;whiteSpace=wrap;html=1;" vertex="1" parent="1">
          <mxGeometry x="203" y="507" width="101" height="34.5" as="geometry" />
        </mxCell>
        <mxCell id="xCn_pxtUZpE1uZEFmkVX-9" value="" style="rounded=0;whiteSpace=wrap;html=1;fontFamily=Arial;fontSize=10;strokeColor=none;fillColor=#0008FF;" vertex="1" parent="1">
          <mxGeometry x="548.44" y="867.5" width="15" height="15" as="geometry" />
        </mxCell>
        <mxCell id="xCn_pxtUZpE1uZEFmkVX-10" value="" style="rounded=0;whiteSpace=wrap;html=1;fontFamily=Arial;fontSize=10;strokeColor=none;fillColor=#FC0000;" vertex="1" parent="1">
          <mxGeometry x="312" y="516.75" width="15" height="15" as="geometry" />
        </mxCell>
        <mxCell id="xCn_pxtUZpE1uZEFmkVX-12" value="&lt;font style=&quot;font-size: 12px;&quot; face=&quot;Arial&quot;&gt;&lt;span style=&quot;&quot;&gt;Optional exercises&lt;br&gt;&lt;/span&gt;&lt;/font&gt;" style="text;html=1;strokeColor=none;fillColor=none;align=center;verticalAlign=middle;whiteSpace=wrap;rounded=0;" vertex="1" parent="1">
          <mxGeometry x="201.69" y="480" width="104.75" height="22" as="geometry" />
        </mxCell>
        <mxCell id="xCn_pxtUZpE1uZEFmkVX-20" value="&lt;div align=&quot;left&quot;&gt;&lt;font size=&quot;1&quot; face=&quot;Arial&quot;&gt;&lt;b style=&quot;font-size: 14px;&quot;&gt;Block 2: Optical flow and extrapolation&lt;/b&gt;&lt;/font&gt;&lt;br&gt;&lt;/div&gt;" style="text;html=1;strokeColor=none;fillColor=none;align=left;verticalAlign=middle;whiteSpace=wrap;rounded=0;" vertex="1" parent="1">
          <mxGeometry x="19" y="521" width="147" height="35" as="geometry" />
        </mxCell>
        <mxCell id="xCn_pxtUZpE1uZEFmkVX-21" value="" style="endArrow=none;html=1;rounded=0;fontFamily=Times New Roman;fontSize=18;" edge="1" parent="1">
          <mxGeometry width="50" height="50" relative="1" as="geometry">
            <mxPoint x="416.8" y="920" as="sourcePoint" />
            <mxPoint x="416.8" y="851" as="targetPoint" />
          </mxGeometry>
        </mxCell>
        <mxCell id="xCn_pxtUZpE1uZEFmkVX-23" value="" style="rounded=0;whiteSpace=wrap;html=1;fontFamily=Arial;fontSize=10;strokeColor=none;fillColor=#0008FF;" vertex="1" parent="1">
          <mxGeometry x="486" y="437.75" width="15" height="15" as="geometry" />
        </mxCell>
      </root>
    </mxGraphModel>
  </diagram>
</mxfile>
